<mxfile host="app.diagrams.net" modified="2024-07-02T10:43:00.769Z" agent="Mozilla/5.0 (Linux; Android 10; K) AppleWebKit/537.36 (KHTML, like Gecko) Chrome/118.0.0.0 Mobile Safari/537.36" version="24.6.4" etag="ro6DlS2hStdfgwlVHHzr" type="github">
  <diagram name="PÃ¡gina-1" id="Gn5lZhUiRkXkdAa8qTeA">
    <mxGraphModel>
      <root>
        <mxCell id="0" />
        <mxCell id="1" parent="0" />
      </root>
    </mxGraphModel>
  </diagram>
</mxfile>
